<svg width="26" height="26" viewBox="0 0 26 26" fill="none" xmlns="http://www.w3.org/2000/svg">
<g clip-path="url(#clip0_4631_1102)">
<path d="M14.0184 25.9122H12.4387C11.1611 25.9122 10.1216 24.8825 10.1216 23.6169V23.0875C9.57837 22.9156 9.05062 22.6986 8.54362 22.4387L8.16489 22.8139C7.24758 23.7236 5.7782 23.697 4.88755 22.8135L3.77105 21.7076C2.87882 20.8247 2.85316 19.3697 3.77134 18.4611L4.14979 18.0863C3.88741 17.584 3.6684 17.0614 3.49481 16.5232H2.96043C1.68283 16.5232 0.643311 15.4935 0.643311 14.2279V12.663C0.643311 11.3974 1.68283 10.3678 2.96048 10.3678H3.49486C3.66845 9.82964 3.88746 9.30691 4.14984 8.80469L3.7711 8.42957C2.85345 7.52154 2.87877 6.06635 3.77139 5.18311L4.88799 4.07708C5.78071 3.19155 7.24975 3.16944 8.16528 4.07737L8.54367 4.4522C9.05067 4.19235 9.57842 3.97535 10.1216 3.80339V3.27405C10.1216 2.00843 11.1611 0.97876 12.4388 0.97876H14.0185C15.2961 0.97876 16.3356 2.00843 16.3356 3.27405V3.80344C16.8788 3.97535 17.4065 4.19235 17.9135 4.45225L18.2923 4.07708C19.2096 3.1673 20.6789 3.19399 21.5696 4.07742L22.6861 5.18335C23.5783 6.0662 23.604 7.52125 22.6858 8.42981L22.3074 8.80469C22.5697 9.30691 22.7887 9.82959 22.9623 10.3678H23.4967C24.7744 10.3678 25.8139 11.3974 25.8139 12.663V14.2279C25.8139 15.4935 24.7744 16.5232 23.4967 16.5232H22.9623C22.7887 17.0613 22.5697 17.584 22.3074 18.0863L22.6861 18.4614C23.6037 19.3694 23.5784 20.8246 22.6858 21.7079L21.5692 22.8139C20.6765 23.6994 19.2074 23.7215 18.2919 22.8136L17.9135 22.4388C17.4065 22.6986 16.8788 22.9156 16.3356 23.0876V23.617C16.3356 24.8825 15.2961 25.9122 14.0184 25.9122ZM8.79017 20.9046C9.4945 21.3172 10.2526 21.6289 11.0433 21.831C11.3689 21.9143 11.5964 22.2052 11.5964 22.5383V23.6169C11.5964 24.0769 11.9743 24.4512 12.4388 24.4512H14.0185C14.4829 24.4512 14.8608 24.0769 14.8608 23.6169V22.5383C14.8608 22.2052 15.0883 21.9143 15.414 21.831C16.2047 21.6289 16.9627 21.3172 17.6671 20.9046C17.9569 20.7348 18.3258 20.781 18.5639 21.0168L19.3352 21.7808C19.6677 22.1106 20.2017 22.103 20.526 21.7812L21.6433 20.6745C21.9669 20.3543 21.9777 19.8253 21.6436 19.4947L20.872 18.7304C20.634 18.4946 20.5874 18.1291 20.7587 17.8421C21.1753 17.1444 21.4899 16.3935 21.694 15.6102C21.778 15.2876 22.0717 15.0623 22.408 15.0623H23.4968C23.9612 15.0623 24.3391 14.688 24.3391 14.228V12.6631C24.3391 12.203 23.9612 11.8287 23.4968 11.8287H22.408C22.0717 11.8287 21.778 11.6034 21.694 11.2808C21.4899 10.4975 21.1752 9.74661 20.7587 9.04896C20.5874 8.76193 20.634 8.3964 20.872 8.16061L21.6433 7.39658C21.9767 7.0667 21.968 6.53784 21.6436 6.21687L20.5264 5.11021C20.2026 4.789 19.6685 4.7796 19.3355 5.10992L18.564 5.87423C18.3259 6.11008 17.9568 6.15624 17.6671 5.98648C16.9628 5.57386 16.2047 5.26215 15.414 5.06C15.0884 4.97678 14.8608 4.68585 14.8608 4.35271V3.27405C14.8608 2.814 14.4829 2.4397 14.0185 2.4397H12.4388C11.9744 2.4397 11.5965 2.814 11.5965 3.27405V4.35261C11.5965 4.68576 11.369 4.97668 11.0433 5.0599C10.2526 5.26205 9.49455 5.57377 8.79022 5.98638C8.50036 6.1561 8.13141 6.10993 7.89337 5.87414L7.12213 5.11011C6.7896 4.78033 6.25556 4.78797 5.93124 5.10977L4.81395 6.21648C4.49038 6.53662 4.47956 7.06563 4.81366 7.39619L5.58525 8.16051C5.82329 8.39631 5.86989 8.76183 5.69856 9.04886C5.28202 9.74651 4.96739 10.4974 4.76332 11.2807C4.67925 11.6033 4.38556 11.8286 4.0493 11.8286H2.96048C2.49605 11.8287 2.11815 12.203 2.11815 12.663V14.2279C2.11815 14.688 2.49605 15.0622 2.96048 15.0622H4.04925C4.38556 15.0622 4.6792 15.2876 4.76327 15.6101C4.96734 16.3935 5.28202 17.1444 5.69851 17.842C5.86984 18.1291 5.82324 18.4946 5.5852 18.7304L4.81391 19.4944C4.48049 19.8243 4.4892 20.3531 4.81361 20.6741L5.9308 21.7808C6.25463 22.102 6.78871 22.1114 7.12173 21.7811L7.89327 21.0168C8.06868 20.8431 8.4336 20.6956 8.79017 20.9046Z" fill="white"/>
<path d="M13.2285 18.8704C10.2087 18.8704 7.75195 16.4368 7.75195 13.4455C7.75195 10.4541 10.2087 8.02051 13.2285 8.02051C16.2483 8.02051 18.7051 10.4541 18.7051 13.4455C18.7051 16.4368 16.2483 18.8704 13.2285 18.8704ZM13.2285 9.48145C11.0219 9.48145 9.22679 11.2597 9.22679 13.4455C9.22679 15.6312 11.022 17.4095 13.2285 17.4095C15.4351 17.4095 17.2302 15.6312 17.2302 13.4455C17.2302 11.2597 15.4351 9.48145 13.2285 9.48145Z" fill="white"/>
</g>
<defs>
<clipPath id="clip0_4631_1102">
<rect width="25.1706" height="24.9334" fill="white" transform="translate(0.643311 0.97876)"/>
</clipPath>
</defs>
</svg>
