<svg width="21" height="21" viewBox="0 0 21 21" fill="none" xmlns="http://www.w3.org/2000/svg">
<path d="M20.712 19.4952L15.0301 13.8199C16.1307 12.462 16.7933 10.7365 16.7933 8.85724C16.7933 4.50159 13.2451 0.95752 8.88443 0.95752C4.52373 0.95752 0.975586 4.50155 0.975586 8.8572C0.975586 13.2129 4.52377 16.7569 8.88447 16.7569C10.7659 16.7569 12.4934 16.095 13.8529 14.9957L19.5348 20.671C19.6971 20.8332 19.9102 20.9147 20.1234 20.9147C20.3365 20.9147 20.5497 20.8332 20.712 20.671C21.0375 20.3459 21.0375 19.8204 20.712 19.4952ZM8.88447 15.0938C5.44119 15.0938 2.64062 12.2965 2.64062 8.8572C2.64062 5.41791 5.44119 2.62059 8.88447 2.62059C12.3278 2.62059 15.1283 5.41791 15.1283 8.8572C15.1283 12.2965 12.3277 15.0938 8.88447 15.0938Z" fill="#585050"/>
</svg>
